<svg width="38" height="38" viewBox="0 0 38 38" fill="none" xmlns="http://www.w3.org/2000/svg">
<path d="M33.25 35.625H11.875C10.5292 35.625 9.5 34.5958 9.5 33.25V11.875C9.5 10.5292 10.5292 9.5 11.875 9.5H33.25C34.5958 9.5 35.625 10.5292 35.625 11.875V33.25C35.625 34.5958 34.5958 35.625 33.25 35.625Z" fill="#FF0000" fill-opacity="0.36"/>
<path d="M15.9998 23.3125L24.3125 15" stroke="#18193F" stroke-width="3" stroke-miterlimit="10" stroke-linecap="round" stroke-linejoin="round"/>
<path d="M24.476 23.1431L15.8365 15.1708" stroke="#18193F" stroke-width="3" stroke-miterlimit="10" stroke-linecap="round" stroke-linejoin="round"/>
<path d="M32.0625 24.4625V29.6875C32.0625 31.0333 31.0333 32.0625 29.6875 32.0625H8.3125C6.96667 32.0625 5.9375 31.0333 5.9375 29.6875V19" stroke="#18193F" stroke-width="3" stroke-miterlimit="10" stroke-linecap="round" stroke-linejoin="round"/>
<path d="M5.9375 13.5375V8.3125C5.9375 6.96667 6.96667 5.9375 8.3125 5.9375H29.6875C31.0333 5.9375 32.0625 6.96667 32.0625 8.3125V18.4458" stroke="#18193F" stroke-width="3" stroke-miterlimit="10" stroke-linecap="round" stroke-linejoin="round"/>
</svg>
